<?xml version="1.0" encoding="utf-8"?>
<!-- Generator: Adobe Illustrator 17.0.0, SVG Export Plug-In . SVG Version: 6.00 Build 0)  -->
<!DOCTYPE svg PUBLIC "-//W3C//DTD SVG 1.1//EN" "http://www.w3.org/Graphics/SVG/1.1/DTD/svg11.dtd">
<svg version="1.1" id="Capa_1" xmlns="http://www.w3.org/2000/svg" xmlns:xlink="http://www.w3.org/1999/xlink" x="0px" y="0px"
	 width="500px" height="500px" viewBox="0 0 500 500" enable-background="new 0 0 500 500" xml:space="preserve">
<g>
	<path fill="#4FC4E2" stroke="#4FC4E2" stroke-width="1.2" stroke-miterlimit="10" d="M176.148,255.901L85.225,136.702v-28.008
		L190.506,247.02L347.742,75.57v29.375L211.569,255.901"/>
	<path fill="#211915" d="M32.928,277.082v-21.23h141.372L83.664,137.756v-27.201l104.579,136.673L345.111,76.054v28.529
		L207.455,255.852h260.056v21.23H32.928z"/>
	<g>
		<path fill="#211915" d="M32.489,255.827h4.934v69.997l27.444-24.052h6.321l-31.76,27.752l39.777,41.628h-6.63l-35.153-36.54v36.54
			h-4.934V255.827z"/>
		<path fill="#211915" d="M96.78,294.063c-2.982,0-4.472-1.387-4.472-4.162c0-2.775,1.49-4.163,4.472-4.163
			c2.98,0,4.471,1.388,4.471,4.163C101.251,292.676,99.76,294.063,96.78,294.063z"/>
		<rect x="94.313" y="301.927" fill="#211915" width="4.934" height="69.226"/>
		<path fill="#211915" d="M188.978,301.773v69.38h-4.934v-17.268c-2.878,5.859-7.195,10.484-12.951,13.876
			c-5.758,3.392-11.924,5.088-18.501,5.088c-10.075,0-18.708-3.57-25.901-10.716c-7.197-7.142-10.793-15.698-10.793-25.67
			c0-9.969,3.596-18.526,10.793-25.671c7.193-7.143,15.826-10.715,25.901-10.715c6.577,0,12.874,1.749,18.887,5.242
			c6.013,3.496,10.199,8.121,12.565,13.876v-17.422H188.978z M120.831,336.617c0,8.635,3.161,16.112,9.482,22.433
			s13.822,9.481,22.509,9.481c8.685,0,16.112-3.16,22.279-9.481c6.168-6.321,9.25-13.824,9.25-22.51
			c0-8.684-3.109-16.213-9.327-22.587c-6.22-6.372-13.645-9.559-22.278-9.559c-8.635,0-16.112,3.214-22.433,9.637
			C123.992,320.454,120.831,327.983,120.831,336.617z"/>
		<path fill="#4FC4E2" d="M207.477,255.827h4.934v69.997l27.444-24.052h6.321l-31.76,27.752l39.777,41.628h-6.63l-35.153-36.54
			v36.54h-4.934V255.827z"/>
		<path fill="#211915" d="M266.68,361.825c-7.091-7.348-10.638-15.905-10.638-25.671c0-9.764,3.596-18.217,10.793-25.363
			c7.193-7.143,15.853-10.715,25.979-10.715c10.123,0,18.757,3.572,25.903,10.715c7.142,7.145,10.715,15.625,10.715,25.439
			c0,9.817-3.495,18.373-10.484,25.67c-6.991,7.3-15.471,10.947-25.439,10.947h-1.388
			C282.253,372.848,273.773,369.175,266.68,361.825z M324.497,336.539c0-8.684-3.109-16.213-9.327-22.587
			c-6.22-6.372-13.645-9.559-22.278-9.559c-8.635,0-16.112,3.214-22.433,9.637c-6.321,6.425-9.482,13.953-9.482,22.587
			c0,8.635,3.161,16.112,9.482,22.433s13.822,9.481,22.509,9.481c8.685,0,16.112-3.16,22.279-9.481S324.497,345.226,324.497,336.539
			z"/>
		<path fill="#211915" d="M369.67,304.393c-5.449,0-10.253,2.058-14.415,6.168c-4.164,4.112-6.245,8.892-6.245,14.338v46.254h-4.934
			v-69.38h4.934v10.329c1.85-3.493,4.727-6.372,8.635-8.634c3.905-2.26,8.273-3.392,13.105-3.392c4.83,0,9.454,1.645,13.876,4.933
			v6.168C380.101,306.655,375.116,304.393,369.67,304.393z"/>
		<path fill="#211915" d="M466.955,301.773v69.38h-4.934v-17.268c-2.878,5.859-7.195,10.484-12.951,13.876
			c-5.758,3.392-11.924,5.088-18.501,5.088c-10.075,0-18.708-3.57-25.901-10.716c-7.197-7.142-10.793-15.698-10.793-25.67
			c0-9.969,3.596-18.526,10.793-25.671c7.193-7.143,15.826-10.715,25.901-10.715c6.577,0,12.875,1.749,18.887,5.242
			c6.013,3.496,10.199,8.121,12.565,13.876v-17.422H466.955z M398.808,336.617c0,8.635,3.161,16.112,9.482,22.433
			c6.321,6.321,13.822,9.481,22.509,9.481c8.685,0,16.112-3.16,22.279-9.481s9.25-13.824,9.25-22.51
			c0-8.684-3.109-16.213-9.328-22.587c-6.22-6.372-13.645-9.559-22.278-9.559c-8.635,0-16.112,3.214-22.433,9.637
			C401.969,320.454,398.808,327.983,398.808,336.617z"/>
	</g>
	<g>
		<path fill="#211915" d="M269.163,390.672c-1.228-0.746-2.604-1.119-4.127-1.119s-2.821,0.473-3.893,1.422
			c-1.072,0.949-1.609,2.246-1.609,3.894v0.233c0,1.958,1.088,3.745,3.265,5.361c0.932,0.684,1.982,1.361,3.146,2.029
			c1.166,0.669,2.332,1.384,3.497,2.145c1.166,0.763,2.223,1.57,3.171,2.426c0.948,0.854,1.725,1.904,2.332,3.146
			c0.606,1.245,0.909,2.612,0.909,4.104v0.466c0,2.953-1.003,5.3-3.008,7.041c-2.005,1.741-4.485,2.611-7.437,2.611
			c-3.886,0-6.901-1.601-9.046-4.802v-2.518c0.807,1.772,1.997,3.21,3.566,4.314c1.57,1.104,3.521,1.655,5.852,1.655
			c2.331,0,4.351-0.745,6.062-2.238c1.709-1.492,2.564-3.48,2.564-5.968v-0.28c0-1.554-0.404-2.975-1.212-4.266
			c-0.81-1.29-1.819-2.347-3.032-3.171c-1.212-0.823-2.534-1.686-3.963-2.587c-1.43-0.901-2.75-1.74-3.963-2.518
			c-1.212-0.777-2.223-1.755-3.03-2.938c-0.809-1.18-1.213-2.47-1.213-3.87v-0.327c0-2.175,0.7-3.838,2.099-4.989
			c1.398-1.15,3.124-1.725,5.175-1.725c2.861,0,5.129,1.057,6.809,3.17v2.379C271.362,392.444,270.39,391.417,269.163,390.672z"/>
		<path fill="#211915" d="M285.11,418.928c-3.529-3.637-5.292-7.888-5.292-12.752c0-4.866,1.787-9.077,5.361-12.636
			s7.864-5.339,12.87-5.339c5.005,0,9.279,1.772,12.823,5.316c3.544,3.544,5.316,7.764,5.316,12.66
			c0,4.895-1.757,9.155-5.269,12.776c-3.513,3.621-7.71,5.432-12.589,5.432h-0.7C292.811,424.383,288.637,422.564,285.11,418.928z
			 M314.648,406.268c0-4.584-1.624-8.517-4.873-11.797c-3.248-3.279-7.165-4.918-11.75-4.918s-8.509,1.639-11.774,4.918
			c-3.264,3.28-4.895,7.213-4.895,11.797c0,4.586,1.631,8.525,4.895,11.821c3.265,3.295,7.181,4.942,11.75,4.942
			c4.57,0,8.487-1.646,11.75-4.942C313.017,414.794,314.648,410.854,314.648,406.268z"/>
		<path fill="#211915" d="M321.782,388.806h12.45v1.352H323.32v18.93h9.093v1.352h-9.093v13.336h-1.539V388.806z"/>
		<path fill="#211915" d="M353.907,388.806v1.352h-7.973v33.619h-1.539v-33.619h-8.066v-1.352H353.907z"/>
		<path fill="#211915" d="M371.113,424.383l-15.34-35.577h1.725l13.848,32.033l6.482-15.154l-7.227-16.88h1.678l6.482,15.341
			l6.668-15.341h1.305l-7.274,16.833l6.621,15.341l14.128-32.174h1.259l-15.527,35.577l-7.413-17.066L371.113,424.383z"/>
		<path fill="#211915" d="M412.893,387.967l17.486,35.81h-1.632l-6.621-13.336h-18.697l-6.529,13.336h-1.445L412.893,387.967z
			 M412.753,391.184l-8.72,17.905h17.532L412.753,391.184z"/>
		<path fill="#211915" d="M435.273,388.806h2.005c3.015,0,5.666,1.112,7.95,3.334c2.285,2.223,3.428,4.834,3.428,7.834
			s-1.166,5.603-3.497,7.809c-2.332,2.208-4.834,3.311-7.508,3.311h-0.326l12.03,12.683h-2.005l-10.586-11.098v11.098h-1.492
			V388.806z M436.765,409.742h0.84c2.517,0,4.74-0.962,6.668-2.891c1.927-1.927,2.89-4.212,2.89-6.854
			c0-2.641-0.995-4.942-2.984-6.9c-1.99-1.959-4.26-2.938-6.807-2.938h-0.607V409.742z"/>
		<path fill="#211915" d="M454.25,388.806h12.544v1.352h-11.005v19.024h9.186v1.352h-9.186v11.89h11.005v1.352H454.25V388.806z"/>
	</g>
</g>
</svg>
