<svg width="135" height="76" viewBox="0 0 135 76" fill="none" xmlns="http://www.w3.org/2000/svg">
<path d="M9.24436 32.1575V34.4542C9.24436 34.9377 8.84156 35.3407 8.3582 35.3407H4.93436C4.45099 35.3407 4.04818 35.7436 4.04818 36.2271V41.5055C4.04818 44.1044 5.98165 46.2601 8.47903 46.6429C8.92212 46.7033 9.24436 47.0861 9.24436 47.5092V49.826C9.24436 50.3498 8.78114 50.7527 8.2575 50.7124C3.62524 50.2289 0 46.2802 0 41.5055V24.8846C0 24.4011 0.402797 23.9982 0.886163 23.9982H3.18215C3.66552 23.9982 4.06833 24.4011 4.06833 24.8846V30.4048C4.06833 30.8883 4.47113 31.2912 4.95449 31.2912H8.37833C8.84156 31.2711 9.24436 31.6538 9.24436 32.1575ZM30.9555 35.1392H28.6596C28.1762 35.1392 27.7734 35.5421 27.7734 36.0256V37.4762V41.2839C27.7734 44.0842 25.5982 46.4817 22.7786 46.6026C19.8381 46.7234 17.4012 44.3461 17.4012 41.4249V36.0458C17.4012 35.5623 16.9984 35.1593 16.515 35.1593H14.219C13.7356 35.1593 13.3328 35.5623 13.3328 36.0458V41.2436C13.3328 46.2399 17.2199 50.4707 22.2147 50.6722C24.269 50.7527 26.1823 50.1483 27.7734 49.0806V50.2692C27.7734 53.8553 25.0544 56.837 21.5702 57.2198C21.1271 57.2601 20.8049 57.6428 20.8049 58.0861V60.3828C20.8049 60.9066 21.2479 61.3095 21.7716 61.2692C27.4109 60.7655 31.8417 56.0311 31.8417 50.2692V41.4249V37.4963V36.0458C31.8417 35.5421 31.4389 35.1392 30.9555 35.1392ZM59.7158 31.2509C56.7552 31.2308 54.137 32.5806 52.4049 34.7363C50.693 32.6007 48.0546 31.2308 45.094 31.2509C39.9985 31.2912 35.9302 35.5623 35.9302 40.6795V49.826C35.9302 50.3095 36.333 50.7124 36.8163 50.7124H39.1325C39.6158 50.7124 40.0187 50.3095 40.0187 49.826V40.6392C40.0187 37.8388 42.1938 35.4414 45.0134 35.3205C47.9539 35.1996 50.3909 37.5769 50.3909 40.4982V49.8059C50.3909 50.2894 50.7937 50.6923 51.277 50.6923H53.573C54.0564 50.6923 54.4592 50.2894 54.4592 49.8059V40.619C54.4592 37.8187 56.6343 35.4212 59.454 35.3004C62.3945 35.1795 64.8314 37.5568 64.8314 40.478V49.7857C64.8314 50.2692 65.2342 50.6722 65.7176 50.6722H68.0136C68.4969 50.6722 68.8997 50.2692 68.8997 49.7857V40.6392C68.8796 35.5623 64.8314 31.2912 59.7158 31.2509ZM95.5453 0.688669L75.2842 11.4671C73.1091 12.7564 73.1091 14.4689 73.1091 16.2821V17.7729V58.2271V59.7179C73.1091 61.511 73.1091 63.2436 75.2842 64.533L95.5453 75.3113C98.7879 77.1044 101.809 75.2307 101.809 71.6044V71.3022V4.69782V4.39563C101.809 0.769254 98.7879 -1.10437 95.5453 0.688669ZM83.0986 49.8059C83.0986 50.2894 82.6958 50.6923 82.2124 50.6923H79.9165C79.4331 50.6923 79.0303 50.2894 79.0303 49.8059V32.8425C79.0303 32.359 79.4331 31.956 79.9165 31.956H82.2124C82.6958 31.956 83.0986 32.359 83.0986 32.8425V49.8059ZM83.0986 27.1209C83.0986 27.6044 82.6958 28.0073 82.2124 28.0073H79.9165C79.4331 28.0073 79.0303 27.6044 79.0303 27.1209V24.8242C79.0303 24.3407 79.4331 23.9377 79.9165 23.9377H82.2124C82.6958 23.9377 83.0986 24.3407 83.0986 24.8242V27.1209ZM96.3307 34.4341C96.3307 34.9176 95.9279 35.3205 95.4446 35.3205H92.0207C91.5374 35.3205 91.1346 35.7234 91.1346 36.207V41.4853C91.1346 44.0842 93.068 46.2399 95.5654 46.6227C96.0085 46.6831 96.3307 47.0659 96.3307 47.489V49.8059C96.3307 50.3297 95.8675 50.7326 95.3439 50.6923C90.7116 50.2088 87.0864 46.2601 87.0864 41.4853V24.8645C87.0864 24.381 87.4892 23.978 87.9725 23.978H90.2685C90.7519 23.978 91.1547 24.381 91.1547 24.8645V30.3846C91.1547 30.8681 91.5575 31.2711 92.0409 31.2711H95.4647C95.9481 31.2711 96.3509 31.674 96.3509 32.1575V34.4341H96.3307ZM117.115 11.9909C117.055 12.011 117.015 12.0513 116.954 12.0714L108.556 16.967C108.516 16.9872 108.475 17.0073 108.435 17.0476C106.139 18.5989 106.139 20.2711 106.139 22.2051V22.5879V53.3919V53.7747C106.139 55.7088 106.139 57.3809 108.435 58.9322C108.475 58.9524 108.516 58.9927 108.556 59.0128L116.954 63.9084C117.015 63.9487 117.055 63.9688 117.115 63.989C120.519 65.6007 122.271 63.5458 122.271 61.6117V60.0403V15.9597V14.3681C122.271 11.8901 120.519 10.3791 117.115 11.9909ZM132.382 23.4341L127.186 26.6374C126.803 26.8993 126.118 27.5037 126.118 28.8132V29.5183V46.4817V47.1868C126.118 48.4963 126.803 49.1007 127.186 49.3626L132.382 52.445C133.711 53.1905 135 52.6868 135 51.196V50.3297V25.6502V24.7839C135 23.3132 133.711 22.6887 132.382 23.4341Z" fill="#00233D"/>
</svg>
